<?xml version="1.0" encoding="UTF-8"?>
<svg xmlns="http://www.w3.org/2000/svg" width="462px" height="45px" version="1.1" viewBox="0 0 4620 450">
    <defs>
        <style type="text/css">
            .red {fill:#ed1c24;}
            .black {fill:#000000;}
        </style>
    </defs>
    <g id="logo">
        <g id='square'>
            <path class="black" d="M0 334c0,61 30,77 97,77l245 0c74,0 98,-20 98,-97l0 -57c0,-77 -24,-97 -98,-97l-245 0 0 -90 257 0 0 38 81 0 0 -18c0,-65 -23,-87 -81,-90l-256 0c-60,3 -80,26 -80,97l0 45c0,77 24,97 97,97l245 0 0 94 -359 0z"/>
            <path class="black" d="M585 0c-60,3 -80,26 -80,97l0 217c0,77 24,97 97,97l74 0 0 56 87 0 0 -56 74 0c74,0 97,-20 97,-97l0 -217c0,-71 -20,-94 -80,-97l-269 0zm258 334l-80 0 0 -44 -87 0 0 44 -81 0 0 -264 248 0 0 264z"/>
            <path class="black" d="M1315 334l-217 0 0 -334 -91 0 0 314c0,77 24,97 97,97l205 0c74,0 97,-20 97,-97l0 -314 -91 0 0 334z"/>
            <path class="black" d="M1638 0l-209 411 86 0 43 -90 234 0 44 90 97 0 -212 -411 -83 0zm-43 247l82 -168 79 168 -162 0z"/>
            <path class="black" d="M2264 256c60,0 88,-22 88,-80l0 -97c0,-53 -24,-76 -75,-79l-307 0 0 411 90 0 0 -156 61 0 142 156 124 0 -157 -156 35 0zm-204 -70l0 -115 163 0c28,0 41,6 41,33l0 49c0,27 -13,33 -41,33l-163 0z"/>

            <g class="letter-e">
                <polygon class="black" points="2521,70 2778,70 2778,0 2430,0 2430,411 2781,411 2781,334 2521,334 "/>
                <polygon class="red" points="2596,239 2744,239 2744,162 2596,162 "/>
            </g>
        </g>

        <g id='enix'>
            <g class='letter-e'>
                <polygon class="black" points="3058,70 3315,70 3315,0 2967,0 2967,411 3319,411 3319,334 3058,334 "/>
                <polygon class="red" points="3134,239 3281,239 3281,162 3134,162 "/>
            </g>
            <path class="black" d="M3690 216c0,13 2,37 4,71 -13,-16 -236,-276 -246,-287l-63 0 0 411 82 0 0 -223c0,-12 -1,-34 -4,-65 11,13 246,288 246,288l62 0 0 -411 -82 0 0 216z"/>
            <polygon class="black" points="3848,411 3939,411 3939,0 3848,0 "/>
            <polygon class="black" points="4272,189 4434,0 4334,0 4221,139 4102,0 3988,0 4167,200 3990,411 4093,411 4218,252 4355,411 4473,411 "/>
        </g>
    </g>
</svg>
